<?xml version="1.0" standalone="no"?>
<!DOCTYPE svg PUBLIC "-//W3C//DTD SVG 20010904//EN"
 "http://www.w3.org/TR/2001/REC-SVG-20010904/DTD/svg10.dtd">
<svg version="1.0" xmlns="http://www.w3.org/2000/svg"
 width="474.000000pt" height="474.000000pt" viewBox="0 0 474.000000 474.000000"
 preserveAspectRatio="xMidYMid meet">
<metadata>
Created by potrace 1.16, written by Peter Selinger 2001-2019
</metadata>
<g transform="translate(0.000000,474.000000) scale(0.100000,-0.100000)"
fill="#000000" stroke="none">
<path d="M2253 4699 c-7 -7 -47 -14 -90 -17 -43 -3 -81 -9 -84 -14 -3 -5 -32
-13 -63 -17 -31 -4 -62 -13 -68 -19 -7 -7 -29 -12 -49 -12 -20 0 -42 -7 -49
-15 -7 -8 -28 -15 -46 -15 -19 0 -34 -4 -34 -10 0 -5 -16 -12 -35 -16 -19 -3
-35 -10 -35 -15 0 -5 -18 -12 -40 -15 -22 -4 -38 -10 -35 -14 3 -4 -11 -11
-30 -14 -19 -4 -35 -11 -35 -15 0 -5 -11 -12 -25 -15 -14 -4 -25 -11 -25 -16
0 -6 -9 -10 -20 -10 -11 0 -20 -4 -20 -9 0 -5 -13 -14 -30 -20 -16 -5 -30 -15
-30 -20 0 -6 -11 -11 -25 -11 -16 0 -25 -6 -25 -15 0 -8 -9 -15 -19 -15 -10 0
-21 -7 -25 -15 -3 -8 -12 -15 -20 -15 -7 0 -16 -7 -20 -15 -3 -8 -12 -15 -21
-15 -8 0 -15 -4 -15 -10 0 -5 -7 -10 -15 -10 -8 0 -15 -8 -16 -17 0 -10 -3
-13 -6 -6 -3 8 -12 4 -27 -12 -13 -14 -28 -25 -35 -25 -6 0 -11 -4 -11 -10 0
-10 -36 -50 -45 -50 -10 0 -155 -148 -155 -159 0 -6 -7 -11 -15 -11 -8 0 -15
-6 -15 -12 -1 -7 -14 -24 -30 -38 -17 -13 -30 -28 -30 -32 0 -10 -10 -22 -58
-73 -17 -20 -32 -40 -32 -45 0 -6 -4 -10 -10 -10 -5 0 -10 -6 -10 -14 0 -8 -6
-21 -14 -28 -7 -8 -17 -24 -20 -36 -4 -12 -12 -22 -17 -22 -5 0 -9 -7 -9 -15
0 -9 -7 -18 -15 -21 -8 -4 -15 -17 -15 -30 0 -12 -6 -27 -12 -31 -16 -10 -48
-69 -48 -88 0 -7 -7 -18 -15 -25 -8 -7 -15 -23 -15 -35 0 -13 -7 -25 -15 -29
-8 -3 -15 -17 -15 -31 0 -15 -7 -33 -15 -41 -8 -9 -15 -29 -15 -45 0 -17 -4
-28 -9 -25 -5 3 -11 -13 -14 -36 -3 -22 -10 -44 -15 -47 -5 -3 -11 -30 -14
-60 -3 -29 -10 -56 -15 -60 -6 -3 -13 -33 -17 -66 -4 -33 -11 -61 -16 -63 -6
-2 -10 -41 -10 -86 0 -46 -7 -105 -15 -132 -20 -65 -19 -278 0 -359 8 -33 15
-94 15 -137 0 -45 4 -78 11 -80 6 -2 13 -33 16 -68 3 -36 10 -68 15 -71 5 -3
12 -26 15 -50 3 -24 10 -46 14 -49 4 -3 11 -21 14 -40 3 -19 10 -39 16 -44 5
-6 9 -19 9 -31 0 -12 7 -30 15 -41 8 -10 15 -29 15 -40 0 -12 7 -27 15 -34 8
-7 15 -19 15 -26 0 -17 41 -98 52 -102 4 -2 8 -10 8 -18 0 -19 36 -85 43 -78
3 3 8 -8 12 -24 3 -17 13 -33 21 -36 8 -3 14 -15 14 -26 0 -11 5 -20 10 -20 6
0 10 -7 10 -15 0 -7 6 -18 12 -22 25 -16 35 -45 24 -70 -6 -12 -17 -23 -23
-23 -7 0 -12 -4 -10 -8 1 -5 -69 -79 -155 -165 -87 -87 -158 -162 -158 -167 0
-6 -4 -10 -10 -10 -13 0 -250 -238 -250 -250 0 -6 -5 -10 -10 -10 -13 0 -50
-37 -50 -50 0 -5 -5 -10 -11 -10 -7 0 -22 -11 -35 -25 -13 -14 -28 -25 -34
-25 -5 0 -10 -18 -10 -40 0 -29 4 -40 15 -40 8 0 15 -7 15 -15 0 -8 7 -15 15
-15 8 0 15 -7 15 -15 0 -8 7 -15 15 -15 8 0 15 -7 15 -15 0 -8 7 -15 15 -15 8
0 15 -7 15 -15 0 -8 7 -15 15 -15 8 0 15 -7 15 -15 0 -8 7 -15 15 -15 8 0 15
-7 15 -15 0 -8 7 -15 15 -15 8 0 15 -7 15 -16 0 -8 4 -12 10 -9 5 3 10 -1 10
-9 0 -9 7 -16 15 -16 8 0 15 -7 15 -15 0 -8 7 -15 15 -15 8 0 15 -7 15 -15 0
-8 7 -15 15 -15 8 0 15 -7 15 -15 0 -8 7 -15 15 -15 8 0 15 -7 15 -15 0 -8 7
-15 15 -15 8 0 15 -4 15 -10 0 -17 39 -50 60 -50 19 0 43 20 92 79 16 18 28
29 28 25 0 -3 16 12 36 35 20 22 44 41 53 41 13 0 13 2 2 9 -11 7 -10 10 6 15
11 4 26 18 33 31 10 19 16 22 22 13 6 -10 8 -10 8 1 0 7 16 31 35 52 19 22 35
37 35 34 0 -4 12 7 26 22 72 79 86 93 95 87 5 -3 9 2 9 10 0 9 6 16 14 16 8 0
17 11 20 25 4 14 10 25 15 25 10 0 74 61 114 109 15 18 27 29 27 25 0 -4 11 5
25 20 13 14 30 26 37 26 10 0 9 3 -1 9 -12 8 -9 11 13 17 17 4 23 9 16 14 -7
4 1 13 22 23 29 14 34 15 44 2 6 -8 16 -15 23 -15 6 0 11 -4 11 -10 0 -5 7
-10 15 -10 9 0 18 -7 21 -15 4 -8 15 -15 25 -15 11 0 22 -6 25 -14 3 -8 16
-17 30 -20 13 -4 24 -11 24 -16 0 -6 8 -10 19 -10 10 0 24 -7 31 -15 7 -8 21
-15 31 -15 10 0 22 -7 26 -15 5 -8 21 -16 35 -17 15 -1 25 -5 22 -9 -2 -4 10
-12 26 -18 17 -5 30 -7 30 -3 0 4 4 1 9 -7 5 -8 22 -16 36 -18 15 -2 34 -11
42 -19 8 -7 28 -14 44 -14 16 0 29 -4 29 -9 0 -6 20 -13 45 -17 25 -3 43 -10
40 -14 -2 -4 21 -10 52 -13 31 -3 59 -10 62 -15 3 -5 35 -12 70 -15 35 -3 67
-10 70 -15 3 -5 56 -12 116 -16 61 -3 143 -10 184 -14 41 -4 102 -4 135 0 34
5 113 11 176 14 63 4 120 11 127 16 7 5 41 12 75 15 35 3 66 10 69 15 3 5 31
12 62 15 31 3 54 9 52 13 -3 4 15 11 40 14 25 4 45 11 45 17 0 5 13 9 29 9 16
0 36 7 45 15 8 8 23 15 33 15 10 0 27 6 38 14 11 7 32 16 48 20 15 3 27 11 27
16 0 6 11 10 24 10 13 0 29 7 36 15 7 8 19 15 26 15 8 0 14 5 14 11 0 5 5 7
10 4 6 -3 10 -1 10 4 0 6 5 11 11 11 6 0 17 7 25 15 9 8 24 15 35 15 10 0 19
7 19 15 0 9 10 15 26 15 14 0 23 4 19 9 -3 5 5 13 17 17 13 4 33 17 45 30 12
13 27 24 32 24 6 0 24 13 41 30 17 16 34 30 38 30 4 0 15 8 24 17 22 24 46 43
53 43 3 0 24 19 46 42 23 24 46 42 50 41 5 -2 9 6 9 17 0 11 4 20 10 20 10 0
80 66 80 76 0 5 14 23 43 55 9 10 17 23 17 29 0 5 7 10 15 10 8 0 15 5 15 11
0 6 6 17 13 24 25 29 33 40 40 58 3 9 11 17 17 17 5 0 10 7 10 15 0 9 7 18 15
21 8 4 15 17 15 30 0 13 6 24 13 24 6 0 21 20 31 43 11 23 26 48 33 55 7 7 13
22 13 33 0 10 7 19 15 19 10 0 15 10 15 30 0 18 5 30 13 30 7 0 14 12 15 27 1
15 6 29 11 33 5 3 13 19 17 35 4 17 10 32 15 35 4 3 9 21 13 40 3 19 10 36 15
38 6 2 11 18 11 36 0 18 7 41 15 52 8 10 15 33 15 50 0 16 7 39 15 50 8 10 15
38 15 62 0 23 7 59 15 79 9 20 15 66 15 110 0 43 6 89 15 110 21 49 21 301 0
358 -8 22 -14 78 -15 125 0 58 -5 91 -15 104 -8 11 -15 41 -15 66 0 25 -7 55
-15 66 -8 10 -15 36 -15 57 0 21 -7 45 -15 53 -8 9 -15 26 -15 39 0 12 -7 36
-15 51 -8 16 -15 39 -15 51 0 12 -5 23 -12 25 -6 2 -13 15 -15 29 -2 13 -8 26
-13 27 -6 2 -10 17 -10 33 0 19 -5 29 -15 29 -10 0 -15 10 -15 30 0 20 -5 30
-15 30 -8 0 -14 3 -14 8 4 24 -3 42 -16 42 -9 0 -15 9 -15 24 0 14 -5 28 -11
31 -5 4 -14 17 -20 28 -11 27 -30 57 -46 75 -7 7 -13 18 -13 23 0 6 -11 20
-24 32 -13 12 -26 32 -30 45 -4 12 -12 20 -17 17 -5 -4 -9 0 -9 7 0 8 -13 28
-30 46 -16 18 -30 37 -30 43 0 5 -7 9 -15 9 -8 0 -15 5 -15 10 0 13 -37 50
-50 50 -6 0 -9 4 -8 8 4 11 -63 78 -74 74 -4 -1 -8 2 -8 8 0 13 -37 50 -50 50
-5 0 -10 7 -10 15 0 8 -4 15 -10 15 -5 0 -22 12 -38 28 -16 15 -39 34 -52 42
-12 8 -28 20 -34 26 -6 5 -19 13 -28 17 -10 3 -18 11 -18 16 0 5 -11 12 -25
15 -14 4 -25 11 -25 16 0 6 -7 10 -15 10 -8 0 -15 5 -15 11 0 5 -13 15 -30 20
-16 6 -30 15 -30 19 0 4 -11 11 -25 14 -14 4 -25 11 -25 16 0 6 -9 10 -20 10
-11 0 -20 4 -20 10 0 5 -12 13 -27 16 -15 4 -34 13 -41 21 -7 7 -22 13 -33 13
-10 0 -19 5 -19 10 0 6 -8 10 -17 10 -10 1 -36 9 -58 20 -22 11 -46 19 -52 20
-7 0 -13 5 -13 10 0 6 -15 10 -34 10 -18 0 -39 7 -46 15 -7 8 -29 15 -49 15
-20 0 -45 7 -55 15 -11 8 -36 15 -56 15 -19 0 -44 6 -55 14 -11 7 -55 15 -98
18 -43 3 -83 10 -90 17 -8 8 -90 11 -277 11 -187 0 -269 -3 -277 -11z m472
-409 c11 -5 56 -11 100 -13 46 -2 81 -9 83 -16 2 -6 20 -11 40 -11 21 0 50 -7
66 -15 15 -8 38 -15 50 -15 12 0 31 -7 42 -15 10 -8 26 -15 35 -15 9 0 30 -7
45 -15 16 -8 37 -15 47 -15 9 0 17 -3 17 -8 0 -8 91 -52 109 -52 6 0 11 -4 11
-10 0 -5 6 -10 13 -10 8 0 24 -9 37 -20 13 -11 29 -20 37 -20 7 0 13 -4 13
-10 0 -5 5 -10 10 -10 14 0 110 -72 110 -83 0 -4 4 -6 8 -3 4 3 25 -11 46 -30
20 -19 39 -34 42 -34 2 0 21 -18 43 -40 21 -22 44 -40 50 -40 6 0 11 -4 11
-10 0 -5 18 -28 40 -50 22 -22 40 -42 40 -44 0 -3 12 -18 26 -33 36 -38 94
-125 94 -140 0 -7 6 -13 13 -13 6 0 21 -19 32 -43 11 -23 24 -45 29 -49 5 -3
11 -14 12 -24 2 -9 7 -20 13 -23 5 -3 13 -19 16 -34 4 -15 11 -27 15 -27 5 0
11 -13 15 -30 4 -16 11 -30 16 -30 5 0 9 -13 9 -29 0 -16 6 -31 14 -34 7 -3
16 -24 20 -46 3 -23 11 -41 16 -41 6 0 10 -17 10 -37 0 -21 7 -47 15 -57 8
-11 15 -39 15 -62 0 -23 5 -44 11 -46 6 -2 15 -54 21 -118 13 -155 19 -402 8
-370 -5 17 -8 -9 -9 -80 -1 -72 -6 -114 -16 -134 -8 -15 -15 -46 -15 -68 0
-22 -7 -46 -15 -54 -8 -9 -15 -31 -15 -50 0 -20 -7 -42 -15 -50 -8 -9 -15 -26
-15 -40 0 -13 -4 -24 -9 -24 -5 0 -12 -14 -16 -31 -4 -17 -13 -42 -21 -57 -8
-15 -14 -33 -14 -39 0 -7 -4 -13 -9 -13 -5 0 -12 -14 -16 -30 -4 -17 -11 -30
-16 -30 -5 0 -9 -6 -9 -14 0 -8 -6 -21 -14 -28 -7 -8 -17 -24 -20 -36 -4 -12
-12 -22 -17 -22 -5 0 -9 -9 -9 -20 0 -11 -7 -20 -15 -20 -8 0 -15 -9 -15 -20
0 -11 -4 -20 -10 -20 -5 0 -12 -11 -16 -25 -3 -14 -12 -25 -20 -25 -8 0 -14
-5 -14 -11 0 -7 -10 -21 -23 -33 -12 -11 -33 -37 -47 -56 -30 -43 -148 -160
-162 -160 -5 0 -7 -4 -3 -9 3 -5 -4 -13 -16 -16 -12 -4 -32 -18 -44 -31 -12
-13 -27 -24 -33 -24 -6 0 -15 -6 -19 -13 -4 -7 -25 -23 -45 -36 -21 -12 -38
-27 -38 -32 0 -5 -9 -9 -19 -9 -11 0 -26 -7 -35 -15 -8 -8 -19 -15 -24 -15 -6
0 -12 -7 -16 -15 -3 -8 -16 -15 -30 -15 -13 0 -26 -7 -30 -15 -3 -8 -15 -15
-26 -15 -12 0 -28 -7 -36 -15 -9 -8 -24 -15 -35 -15 -10 0 -19 -4 -19 -9 0 -5
-14 -12 -31 -16 -17 -4 -42 -13 -57 -21 -15 -8 -35 -14 -44 -14 -10 0 -18 -4
-18 -9 0 -5 -22 -11 -50 -15 -27 -4 -50 -11 -50 -16 0 -6 -19 -10 -42 -10 -24
0 -55 -6 -69 -13 -23 -13 -248 -31 -359 -30 -105 1 -286 16 -297 25 -7 6 -39
12 -73 15 -33 3 -60 9 -60 14 0 4 -25 11 -55 14 -30 4 -55 11 -55 15 0 4 -16
11 -35 14 -19 4 -35 11 -35 16 0 6 -11 10 -24 10 -14 0 -31 7 -40 15 -8 8 -24
15 -35 15 -11 0 -26 7 -35 15 -8 8 -25 16 -37 18 -13 2 -25 9 -27 15 -2 7 -15
12 -28 12 -13 0 -24 6 -24 13 0 6 -19 21 -43 32 -23 11 -46 25 -50 32 -4 7
-12 13 -18 13 -10 0 -24 10 -60 43 -10 9 -22 17 -25 17 -4 0 -16 10 -28 23
-12 13 -29 26 -39 30 -9 3 -17 11 -17 17 0 5 -5 10 -11 10 -20 0 -160 150
-153 162 5 7 3 8 -5 4 -8 -5 -14 0 -18 13 -3 12 -12 21 -19 21 -8 0 -14 7 -14
15 0 8 -4 15 -10 15 -5 0 -10 7 -10 15 0 8 -4 15 -9 15 -5 0 -21 20 -35 45
-15 25 -31 45 -36 45 -6 0 -10 9 -10 20 0 11 -4 20 -10 20 -5 0 -12 11 -16 25
-3 14 -12 25 -20 25 -8 0 -14 10 -14 24 0 13 -7 26 -15 30 -8 3 -15 16 -15 30
0 13 -7 26 -15 30 -8 3 -15 15 -15 26 0 12 -7 28 -15 36 -8 9 -15 29 -15 45 0
16 -4 29 -9 29 -5 0 -12 16 -15 35 -4 19 -11 35 -16 35 -6 0 -10 15 -10 33 0
17 -7 45 -15 61 -8 15 -15 44 -15 63 0 19 -6 49 -14 66 -16 37 -30 198 -29
337 1 147 15 324 25 331 6 4 13 34 17 68 4 34 13 67 19 73 7 7 12 29 12 50 0
21 4 38 9 38 5 0 13 15 16 33 4 17 11 37 15 42 4 6 11 25 15 43 3 18 10 30 15
27 4 -3 11 11 14 30 4 19 11 35 16 35 4 0 11 14 15 30 4 17 11 30 16 30 5 0 9
7 9 15 0 16 45 86 52 80 2 -2 4 4 5 15 1 10 11 28 23 40 11 11 18 25 15 30 -3
4 -1 10 4 12 12 4 81 96 81 108 0 6 7 10 15 10 8 0 15 5 15 11 0 12 172 184
222 221 17 13 39 31 49 41 11 9 26 17 34 17 8 0 15 7 15 16 0 8 4 13 8 10 5
-3 16 4 25 15 9 10 24 19 32 19 8 0 15 5 15 10 0 6 6 10 14 10 8 0 21 6 28 13
14 14 38 28 138 76 36 17 71 31 78 31 7 0 15 7 18 15 4 9 19 15 38 15 17 0 40
7 50 15 11 8 31 15 45 15 14 0 35 7 45 15 11 8 38 15 60 15 23 0 50 7 60 15
14 10 45 15 99 15 47 0 76 4 72 10 -11 18 346 19 390 0z"/>
<path d="M1868 3220 c-10 -11 -18 -24 -18 -30 0 -5 -7 -10 -15 -10 -8 0 -15
-5 -15 -10 0 -6 -9 -20 -20 -32 -10 -12 -17 -25 -14 -30 3 -4 -2 -8 -10 -8 -9
0 -16 -7 -16 -15 0 -8 -7 -15 -15 -15 -8 0 -15 -6 -15 -14 0 -21 -30 -41 -56
-38 -15 2 -28 -4 -36 -17 -7 -12 -22 -21 -32 -21 -29 0 -90 -23 -99 -38 -5 -7
-18 -10 -33 -6 -20 5 -26 2 -31 -14 -5 -23 -30 -32 -85 -32 -29 0 -36 -3 -32
-15 4 -10 0 -15 -11 -15 -12 0 -15 -5 -11 -16 5 -13 2 -15 -13 -11 -11 3 -22
0 -25 -7 -2 -6 -5 0 -6 14 0 22 -2 23 -11 8 -5 -10 -17 -18 -24 -18 -8 0 -15
-6 -15 -12 0 -9 -4 -8 -11 2 -8 12 -10 9 -6 -14 4 -22 0 -30 -14 -33 -12 -4
-19 -14 -19 -30 0 -13 -7 -31 -15 -39 -9 -9 -15 -34 -15 -58 0 -24 -7 -60 -15
-79 -17 -42 -21 -237 -5 -253 6 -6 13 -40 17 -77 3 -37 10 -67 14 -67 5 0 12
-18 15 -40 4 -22 10 -40 14 -40 5 0 11 -14 15 -30 4 -17 11 -28 16 -24 5 3 9
-4 9 -16 0 -11 6 -23 14 -26 8 -3 17 -16 20 -30 4 -13 11 -24 16 -24 6 0 10
-7 10 -15 0 -8 7 -15 15 -15 8 0 15 -7 15 -15 0 -8 4 -15 9 -15 6 0 25 -13 43
-30 18 -16 38 -30 46 -30 7 0 15 -7 18 -15 4 -8 14 -15 24 -15 10 0 23 -7 30
-15 7 -8 19 -15 27 -15 8 0 21 -7 29 -15 9 -8 26 -15 40 -15 13 0 24 -4 24 -9
0 -5 29 -13 65 -16 36 -4 65 -11 65 -16 0 -5 63 -9 140 -9 87 0 140 4 140 10
0 6 14 10 32 10 35 0 161 39 166 52 2 4 12 8 22 8 10 0 25 6 32 14 8 7 24 17
36 20 12 4 22 12 22 17 0 5 7 9 15 9 8 0 15 7 15 15 0 8 7 15 15 15 8 0 15 7
15 15 0 8 4 15 10 15 15 0 50 33 50 47 0 7 4 13 9 13 5 0 13 10 17 23 4 12 12
25 18 29 16 10 15 190 -1 195 -7 3 -13 9 -13 15 0 22 -67 74 -116 91 -56 19
-124 23 -124 7 0 -5 -12 -13 -27 -16 -32 -8 -83 -52 -83 -71 0 -7 -7 -13 -15
-13 -8 0 -15 -5 -15 -10 0 -6 -12 -23 -27 -37 -16 -14 -27 -29 -26 -34 2 -5
-3 -9 -11 -9 -8 0 -16 -7 -20 -15 -3 -8 -10 -15 -16 -15 -6 0 -19 -7 -27 -16
-13 -13 -33 -15 -95 -12 -43 2 -82 8 -86 14 -4 6 -19 14 -34 18 -16 3 -28 11
-28 16 0 6 -7 10 -15 10 -8 0 -15 7 -15 15 0 8 -6 15 -14 15 -8 0 -17 11 -20
25 -4 14 -11 25 -16 25 -6 0 -10 8 -10 18 0 10 -7 27 -15 38 -8 11 -15 41 -15
71 0 28 -4 55 -10 58 -5 3 -10 39 -10 80 0 41 5 77 10 80 6 3 10 28 10 55 0
27 6 55 13 62 6 7 14 24 15 38 2 14 10 29 18 33 8 4 14 14 14 22 0 22 68 85
91 85 11 0 22 7 25 15 5 12 25 15 96 15 54 0 87 -4 83 -9 -3 -6 10 -13 30 -17
19 -3 33 -10 30 -14 -3 -5 3 -11 13 -14 10 -4 25 -18 32 -31 7 -14 17 -25 22
-25 4 0 8 -7 8 -15 0 -9 7 -18 15 -21 8 -4 15 -10 15 -15 0 -21 45 -69 65 -69
12 0 30 -7 41 -15 25 -19 58 -19 74 0 8 9 29 15 55 15 29 0 45 5 49 15 3 8 12
15 21 15 8 0 15 6 15 14 0 8 7 16 15 20 8 3 15 14 15 25 0 11 5 21 12 23 18 6
14 147 -5 183 -9 17 -17 34 -17 39 0 5 -11 19 -25 32 -14 13 -25 28 -25 34 0
5 -7 10 -15 10 -8 0 -15 7 -15 15 0 8 -7 15 -16 15 -8 0 -12 5 -9 10 3 6 -1
10 -10 10 -8 0 -18 6 -21 14 -3 8 -16 17 -30 20 -13 4 -24 11 -24 16 0 6 -8
10 -19 10 -10 0 -24 7 -31 15 -7 8 -25 15 -40 15 -16 0 -30 5 -32 11 -2 5 -24
13 -48 16 -25 3 -50 10 -57 15 -6 5 -42 11 -80 13 -59 4 -70 2 -85 -15z"/>
<path d="M2738 3234 c-10 -3 -18 -10 -18 -15 0 -5 -13 -9 -30 -9 -20 0 -30 -5
-30 -15 0 -8 -7 -15 -15 -15 -8 0 -15 -7 -15 -15 0 -8 -7 -15 -15 -15 -8 0
-15 -7 -15 -16 0 -8 -7 -22 -15 -30 -24 -24 -18 -183 6 -168 5 3 9 -13 9 -35
0 -22 7 -46 15 -55 8 -8 15 -26 15 -41 0 -15 7 -33 15 -41 8 -9 15 -29 15 -45
0 -17 7 -37 15 -45 8 -9 15 -28 15 -44 0 -16 5 -30 11 -32 5 -2 13 -22 16 -46
3 -23 9 -42 14 -42 4 0 11 -17 15 -37 4 -21 13 -47 20 -58 8 -11 14 -32 14
-47 0 -16 4 -28 9 -28 5 0 11 -18 15 -40 3 -22 11 -40 16 -40 6 0 10 -13 10
-29 0 -16 7 -34 15 -41 8 -7 15 -27 15 -46 0 -18 7 -39 15 -48 8 -8 15 -26 15
-41 0 -15 7 -33 15 -41 8 -9 15 -27 15 -42 0 -15 7 -36 15 -46 8 -11 15 -32
15 -48 0 -15 4 -28 9 -28 5 0 12 -14 16 -30 4 -17 11 -30 16 -30 5 0 11 -11
15 -25 3 -14 12 -25 19 -25 6 0 20 -9 30 -20 10 -11 29 -20 42 -20 12 0 23 -4
23 -10 0 -6 52 -10 135 -10 83 0 135 4 135 10 0 6 6 10 14 10 25 0 86 44 92
67 3 12 12 24 20 27 8 3 14 17 14 31 0 15 4 24 9 20 6 -3 13 15 16 40 4 25 11
45 16 45 5 0 9 11 9 24 0 33 10 57 21 50 5 -3 9 13 9 34 0 23 6 45 15 52 8 7
15 24 15 39 0 14 7 35 15 45 8 11 15 28 15 39 0 10 6 31 14 45 19 37 37 91 44
127 2 17 11 39 18 50 8 11 14 32 14 46 0 15 5 29 11 31 5 2 13 22 16 46 3 23
9 42 14 42 4 0 11 17 15 38 4 20 10 39 14 42 5 3 10 20 13 38 3 18 10 38 15
45 6 7 12 23 14 37 1 14 9 31 16 38 6 7 12 26 12 41 0 15 7 36 15 47 21 27 21
182 0 190 -8 4 -15 10 -15 15 0 14 -33 49 -47 49 -7 0 -13 7 -13 15 0 9 -9 15
-24 15 -13 0 -26 5 -28 12 -7 19 -120 23 -159 5 -19 -9 -40 -17 -48 -19 -18
-4 -51 -35 -51 -48 0 -5 -7 -10 -15 -10 -9 0 -15 -9 -15 -24 0 -13 -7 -29 -15
-36 -8 -7 -15 -29 -15 -49 -1 -20 -7 -47 -15 -61 -8 -14 -15 -38 -15 -55 0
-16 -7 -41 -15 -55 -8 -14 -15 -41 -15 -60 0 -19 -7 -46 -15 -60 -8 -14 -15
-38 -15 -55 0 -16 -7 -41 -15 -55 -8 -14 -14 -44 -15 -66 0 -23 -6 -46 -13
-52 -7 -6 -14 -30 -16 -54 -1 -23 -6 -45 -11 -48 -5 -3 -12 -29 -16 -58 -3
-28 -10 -52 -15 -52 -5 0 -9 -10 -9 -22 0 -36 -11 -68 -21 -62 -5 3 -9 14 -9
26 0 11 -6 34 -14 51 -8 18 -17 50 -20 72 -3 22 -10 41 -16 43 -5 2 -10 22
-10 45 0 23 -7 51 -15 61 -8 11 -15 39 -15 62 0 23 -5 44 -11 46 -6 2 -14 28
-17 58 -2 30 -9 58 -15 61 -5 4 -12 30 -15 58 -2 28 -8 51 -13 51 -4 0 -11 27
-15 60 -4 33 -10 60 -14 60 -6 0 -18 52 -22 98 -1 6 -5 12 -9 12 -4 0 -10 12
-13 26 -9 35 -68 94 -94 94 -11 0 -22 5 -24 12 -4 12 -118 21 -150 12z"/>
</g>
</svg>
