<svg width="0" height="0" class="hidden">
  <symbol version="1.0" xmlns="http://www.w3.org/2000/svg" preserveAspectRatio="xMidYMid meet" viewBox="0 0 474.000000 454.000000" id="logo">
    <metadata>Created by potrace 1.16, written by Peter Selinger 2001-2019</metadata>
    <g transform="translate(0.000000,454.000000) scale(0.100000,-0.100000)" fill="currentColor" stroke="none">
      <path d="M1510 4532 c0 -5 -36 -14 -80 -21 -218 -33 -526 -145 -722 -264 -187
-112 -377 -295 -497 -477 -86 -130 -167 -317 -186 -427 -4 -24 -11 -43 -16
-43 -5 0 -9 -88 -9 -205 0 -117 4 -205 9 -205 5 0 12 -19 16 -42 21 -121 114
-323 212 -459 64 -89 208 -232 297 -294 31 -22 85 -60 119 -85 328 -240 705
-371 1139 -396 l116 -7 68 -126 c37 -69 103 -193 147 -276 44 -82 123 -231
177 -330 53 -99 131 -243 172 -320 41 -77 108 -202 148 -278 l74 -137 88 -62
c48 -34 88 -66 88 -70 0 -4 9 -8 20 -8 20 0 28 15 12 22 -5 1 -39 61 -77 133
-38 72 -80 153 -95 180 -15 28 -55 104 -90 170 -35 66 -66 125 -70 130 -4 6
-36 64 -71 130 -34 66 -81 154 -103 196 -23 41 -111 206 -196 366 l-155 290
-155 7 c-636 28 -1108 224 -1399 581 -283 347 -352 781 -189 1195 28 72 105
214 137 255 15 18 15 19 -1 7 -14 -11 -17 -10 -21 5 -3 10 -5 3 -6 -14 -1 -32
-14 -43 -26 -24 -9 15 -139 104 -152 104 -8 0 -8 7 0 24 12 26 53 33 43 7 -4
-10 -1 -14 6 -12 21 7 20 26 -1 33 -28 9 -26 18 11 62 18 21 38 44 43 52 37
51 135 146 218 212 288 231 685 380 1080 405 59 4 107 11 107 15 0 5 -52 9
-115 9 -63 0 -115 -4 -115 -8z"></path>
      <path d="M1870 4531 c0 -4 46 -11 103 -15 166 -11 314 -40 512 -98 288 -85
370 -96 430 -59 l31 18 54 -39 c132 -93 131 -92 148 -81 21 12 48 59 57 94 6
24 -1 32 -89 94 -53 38 -96 74 -96 82 0 30 -17 10 -29 -35 -22 -88 -84 -136
-175 -135 -53 0 -286 60 -406 103 -32 12 -271 60 -298 60 -11 0 -23 6 -25 13
-4 9 -8 8 -16 -3 -7 -10 -11 -11 -11 -2 0 9 -26 12 -95 12 -52 0 -95 -4 -95
-9z"></path>
      <path d="M3110 4531 c0 -5 6 -11 14 -14 7 -3 54 -36 105 -73 l91 -67 0 -458 0
-459 -53 0 -54 0 -12 43 c-20 67 -75 179 -120 245 -112 166 -264 284 -469 366
-310 124 -674 108 -966 -42 -144 -74 -278 -188 -352 -300 -76 -113 -143 -284
-175 -442 -21 -106 -36 -350 -25 -423 l7 -47 758 0 757 0 95 -66 c52 -36 98
-70 102 -74 11 -10 17 -64 9 -77 -4 -6 -60 -13 -132 -16 -145 -6 -192 -18
-233 -58 -45 -46 -35 -90 59 -275 44 -85 84 -161 91 -170 11 -15 19 -13 81 24
85 51 203 138 301 222 52 45 77 61 87 54 7 -5 51 -36 98 -69 l85 -60 1 -117 0
-117 -67 -54 c-90 -72 -191 -136 -302 -193 -50 -25 -91 -48 -91 -52 0 -8 310
-592 330 -622 10 -14 44 -74 75 -135 32 -60 59 -111 60 -113 2 -2 31 48 65
110 35 62 82 147 105 188 23 41 90 161 147 265 58 105 151 272 207 373 56 100
99 188 95 194 -4 6 -3 8 3 5 6 -4 45 61 94 158 76 150 84 170 87 232 3 58 0
73 -20 102 -43 64 -179 110 -325 111 l-72 0 -3 42 c-3 41 -6 45 -95 108 -51
36 -92 68 -92 72 -1 4 238 7 531 7 l532 1 61 -42 c33 -23 76 -54 95 -70 33
-27 60 -36 60 -20 0 4 -20 19 -43 34 -23 15 -68 46 -99 68 l-58 41 -541 -1
c-298 0 -545 -3 -550 -6 -5 -3 -9 -25 -9 -50 l0 -44 98 -73 97 -72 110 -10
110 -10 -1 -55 c-2 -82 -40 -161 -341 -704 -58 -104 -116 -209 -130 -235 -14
-25 -47 -84 -73 -131 -26 -47 -75 -136 -110 -199 -58 -104 -65 -112 -77 -95
-7 10 -64 113 -125 229 -61 115 -126 238 -144 272 -19 33 -34 64 -34 67 0 3
33 22 73 42 91 46 188 108 300 192 l87 66 0 138 c0 106 -3 138 -12 136 -17 -3
-46 14 -127 73 -37 27 -74 49 -81 49 -7 0 -45 -28 -84 -63 -107 -94 -153 -130
-257 -196 l-94 -61 -16 22 c-40 53 -163 321 -163 355 0 72 68 99 277 110 l117
6 0 51 0 51 -102 73 c-61 42 -113 72 -128 72 -14 0 -356 1 -760 3 l-735 2 0
185 c1 155 5 202 24 290 29 135 87 284 151 387 91 147 266 288 452 362 293
118 679 104 948 -34 45 -23 124 -99 172 -165 34 -47 101 -182 122 -246 19 -58
28 -67 147 -151 79 -56 89 -60 135 -58 27 1 52 3 57 3 4 1 7 215 7 475 l0 472
-57 40 c-31 22 -73 52 -94 66 -21 15 -35 29 -32 33 4 3 -3 6 -15 6 -12 0 -22
-4 -22 -9z"></path>
      <path d="M1750 4356 c-400 -48 -759 -196 -1035 -429 -249 -209 -419 -494 -470
-785 -17 -98 -19 -268 -5 -362 24 -152 98 -333 197 -483 63 -95 249 -281 343
-342 223 -145 499 -247 790 -290 94 -14 347 -34 442 -35 41 0 40 2 143 -195
32 -60 66 -123 75 -140 10 -16 41 -75 70 -130 47 -88 209 -392 308 -575 19
-36 91 -171 159 -300 69 -129 133 -242 143 -251 18 -16 80 -15 80 1 0 4 26 54
59 111 32 57 157 280 276 494 245 438 465 831 705 1260 310 555 400 661 609
721 70 20 76 24 76 49 l0 26 -525 0 -525 -1 0 -26 c0 -26 3 -27 60 -31 274
-17 387 -100 355 -261 -17 -80 -77 -200 -335 -667 -124 -225 -281 -510 -348
-632 -67 -122 -124 -222 -127 -223 -8 0 -27 36 -436 807 -30 56 -51 104 -47
106 5 3 47 25 95 50 107 56 180 102 285 181 l82 61 1 103 c0 56 -2 102 -4 102
-3 0 -11 -6 -18 -13 -114 -108 -325 -257 -442 -313 -42 -20 -78 -35 -80 -33
-9 11 -226 424 -253 484 -58 125 -36 197 68 225 41 11 197 29 262 30 23 0 27
4 27 28 l0 27 -762 -3 c-420 -1 -769 -5 -776 -7 -7 -3 -12 -15 -10 -27 3 -19
13 -23 73 -34 102 -17 149 -40 199 -95 51 -57 149 -221 304 -509 127 -237 128
-228 -23 -190 -284 71 -480 234 -601 498 -137 298 -173 773 -84 1099 23 86 85
232 132 311 45 78 187 219 278 277 179 115 352 170 565 182 206 11 401 -27
582 -112 243 -114 402 -282 503 -530 l36 -90 38 0 37 0 3 430 c1 237 0 438 -2
448 -3 12 -14 17 -42 17 -35 0 -38 -2 -50 -42 -19 -65 -48 -98 -108 -125 -70
-33 -122 -27 -321 32 -199 59 -290 82 -428 106 -154 26 -443 34 -603 15z"></path>
      <path d="M1116 2728 c48 -301 158 -541 302 -660 35 -29 184 -81 266 -93 38 -5
70 -21 140 -71 49 -35 92 -62 94 -60 4 5 -237 452 -298 551 -103 169 -147 205
-286 228 l-79 13 -3 40 c-3 35 -9 43 -64 82 -90 65 -87 66 -72 -30z m84 -74
c37 -26 63 -37 104 -41 l54 -6 45 -71 c45 -72 147 -252 147 -260 0 -2 34 -65
76 -141 41 -75 73 -139 71 -141 -7 -7 -121 23 -199 52 -53 20 -78 37 -118 81
-94 103 -169 256 -216 441 -24 95 -28 122 -19 122 3 0 27 -16 55 -36z"></path>
      <path d="M4671 2624 c-137 -37 -256 -123 -346 -248 -54 -77 -131 -204 -227
-376 -42 -74 -106 -189 -143 -255 -37 -66 -79 -140 -93 -165 -242 -433 -515
-921 -590 -1055 -52 -93 -135 -242 -184 -330 -49 -88 -95 -165 -103 -171 -19
-14 -19 -24 -2 -24 8 0 69 100 137 223 68 122 201 359 295 527 187 333 330
588 565 1010 343 615 414 716 566 797 32 17 89 39 127 48 37 10 67 21 67 26 0
11 -3 11 -69 -7z"></path>
    </g>
  </symbol>
</svg>