<svg width="0" height="0" class="hidden">
  <symbol version="1.0" xmlns="http://www.w3.org/2000/svg" preserveAspectRatio="xMidYMid meet" viewBox="0 0 474.000000 458.000000" id="icon-calendar">
    <metadata>Created by potrace 1.16, written by Peter Selinger 2001-2019</metadata>
    <g transform="translate(0.000000,458.000000) scale(0.100000,-0.100000)" fill="currentColor" stroke="none">
      <path d="M1105 4569 c-5 -5 -31 -23 -56 -38 -33 -21 -53 -43 -73 -82 l-26 -53
0 -285 c0 -266 2 -289 21 -331 42 -92 112 -140 209 -141 109 -2 195 62 226
168 12 42 15 103 12 325 -3 259 -4 275 -25 314 -24 44 -79 98 -112 109 -12 3
-21 11 -21 16 0 12 -142 11 -155 -2z"></path>
      <path d="M3480 4571 c0 -5 -10 -13 -22 -17 -44 -13 -91 -59 -114 -109 -23 -49
-24 -58 -24 -329 0 -185 4 -292 12 -318 6 -22 29 -59 50 -83 51 -57 107 -79
192 -73 83 5 138 41 181 119 l30 54 0 295 c0 284 -1 296 -22 336 -24 44 -79
98 -112 109 -12 3 -21 11 -21 16 0 5 -34 9 -75 9 -41 0 -75 -4 -75 -9z"></path>
      <path d="M3950 3954 c0 -184 -12 -247 -64 -328 -60 -94 -155 -156 -270 -177
-169 -31 -344 61 -420 221 -31 64 -31 67 -34 248 l-3 182 -790 0 -789 0 0
-160 c0 -136 -3 -170 -21 -222 -50 -149 -162 -243 -320 -269 -172 -29 -331 57
-412 220 -32 65 -32 66 -35 248 l-4 183 -201 0 c-187 0 -207 -2 -270 -24 -77
-28 -158 -85 -210 -148 -39 -47 -87 -142 -87 -170 0 -10 -4 -18 -10 -18 -7 0
-10 -568 -10 -1685 0 -1117 3 -1685 10 -1685 6 0 10 -8 10 -19 0 -35 69 -156
117 -204 54 -55 150 -112 206 -122 20 -4 37 -11 37 -16 0 -5 836 -9 1990 -9
1320 0 1990 3 1990 10 0 6 8 10 18 10 35 0 163 70 212 116 52 49 114 157 126
220 3 19 10 34 15 34 5 0 9 701 9 1665 0 936 -4 1665 -9 1665 -4 0 -11 15 -14
34 -17 104 -133 249 -237 298 -82 38 -147 49 -347 55 l-183 6 0 -159z m468
-2236 c-3 -1101 -3 -1124 -23 -1162 -11 -22 -33 -49 -48 -60 l-28 -21 -1942 0
c-1922 0 -1942 0 -1982 20 -22 11 -48 36 -60 55 -20 35 -20 50 -23 1163 l-2
1127 2055 0 2055 0 -2 -1122z"></path>
      <path d="M1580 2290 l0 -230 313 2 312 3 3 228 2 227 -315 0 -315 0 0 -230z"></path>
      <path d="M2530 2290 l0 -230 310 0 310 0 0 230 0 230 -310 0 -310 0 0 -230z"></path>
      <path d="M3480 2290 l0 -230 310 0 310 0 0 230 0 230 -310 0 -310 0 0 -230z"></path>
      <path d="M640 1660 l0 -230 310 0 310 0 0 230 0 230 -310 0 -310 0 0 -230z"></path>
      <path d="M1580 1660 l0 -230 310 0 310 0 0 230 0 230 -310 0 -310 0 0 -230z"></path>
      <path d="M2530 1660 l0 -230 310 0 310 0 0 230 0 230 -310 0 -310 0 0 -230z"></path>
      <path d="M3480 1660 l0 -230 310 0 310 0 0 230 0 230 -310 0 -310 0 0 -230z"></path>
      <path d="M635 1247 c-3 -7 -4 -111 -3 -232 l3 -220 310 0 310 0 0 230 0 230
-308 3 c-244 2 -309 0 -312 -11z"></path>
      <path d="M1584 1247 c-2 -7 -3 -111 -2 -232 l3 -220 308 0 308 0 0 220 c0 121
0 226 -1 233 0 18 -608 18 -616 -1z"></path>
      <path d="M2530 1030 l0 -230 310 0 310 0 0 230 0 230 -310 0 -310 0 0 -230z"></path>
      <path d="M3480 1030 l0 -230 310 0 310 0 0 230 0 230 -310 0 -310 0 0 -230z"></path>
    </g>
  </symbol>
  <symbol version="1.0" xmlns="http://www.w3.org/2000/svg" preserveAspectRatio="xMidYMid meet" viewBox="0 0 474.000000 333.000000" id="icon-diplome">
    <metadata>Created by potrace 1.16, written by Peter Selinger 2001-2019</metadata>
    <g transform="translate(0.000000,333.000000) scale(0.100000,-0.100000)" fill="currentColor" stroke="none">
      <path d="M2364 3320 c-8 -8 -258 -95 -1149 -397 -402 -136 -836 -283 -952
-323 -142 -49 -183 -85 -154 -138 15 -27 51 -43 328 -138 136 -46 249 -86 251
-89 3 -2 -16 -28 -42 -56 -55 -61 -108 -152 -137 -235 -26 -77 -49 -228 -49
-331 0 -73 -2 -82 -20 -88 -33 -11 -80 -55 -103 -99 -15 -30 -21 -59 -21 -106
0 -79 25 -133 82 -179 l40 -31 -15 -75 c-36 -191 -104 -367 -210 -543 -66
-110 -191 -282 -205 -282 -45 0 110 -114 227 -166 33 -15 62 -31 63 -36 5 -10
69 -11 74 0 1 4 27 22 55 41 112 71 204 207 238 353 27 118 36 296 25 502 -6
105 -12 199 -14 208 -2 9 5 25 16 35 36 33 69 101 75 155 7 67 -23 144 -74
189 l-35 30 12 105 c15 143 42 243 91 333 42 79 142 191 169 191 9 0 202 -63
430 -141 228 -77 539 -183 690 -234 151 -51 295 -100 319 -109 24 -9 56 -16
71 -16 16 0 147 41 292 91 144 50 340 117 433 149 94 32 307 105 475 163 168
58 436 150 595 205 429 148 436 150 472 175 25 17 33 29 33 52 0 54 18 46
-635 270 -181 62 -456 157 -610 210 -154 53 -370 128 -480 165 -409 139 -530
183 -533 191 -5 12 -106 11 -118 -1z"></path>
      <path d="M3940 1818 c-30 -11 -131 -46 -225 -78 -159 -55 -351 -121 -990 -341
-189 -65 -270 -89 -295 -86 -19 2 -222 68 -450 146 -688 236 -974 333 -998
338 l-23 5 3 -543 3 -544 27 -47 c78 -132 304 -256 607 -333 646 -163 1513
-127 2045 86 179 71 307 167 352 264 l24 50 0 553 c0 435 -3 552 -12 551 -7 0
-38 -10 -68 -21z"></path>
    </g>
  </symbol>
  <symbol version="1.0" xmlns="http://www.w3.org/2000/svg" preserveAspectRatio="xMidYMid meet" viewBox="0 0 474.000000 474.000000" id="icon-globe">
    <metadata>Created by potrace 1.16, written by Peter Selinger 2001-2019</metadata>
    <g transform="translate(0.000000,474.000000) scale(0.100000,-0.100000)" fill="currentColor" stroke="none">
      <path d="M2100 4731 c0 -4 -28 -11 -62 -15 -267 -29 -643 -164 -904 -324 -481
-294 -853 -768 -1022 -1302 -36 -113 -78 -300 -88 -388 -4 -34 -11 -65 -15
-68 -13 -8 -12 -524 1 -524 6 0 10 -16 10 -34 0 -53 37 -235 75 -365 184 -639
635 -1176 1230 -1466 225 -110 474 -188 687 -217 48 -7 88 -16 88 -20 0 -4
119 -8 265 -8 170 0 265 4 265 10 0 6 14 10 32 10 31 0 160 20 166 25 2 2 -4
15 -14 30 -23 35 -31 171 -15 246 6 30 43 119 81 199 146 308 146 420 -2 520
-92 62 -121 92 -168 171 -21 36 -67 100 -100 140 -33 41 -64 87 -68 102 -4 15
-5 63 -2 105 6 82 39 163 101 246 25 34 29 49 29 103 l0 63 -47 30 c-55 35
-76 37 -110 11 -30 -24 -43 -20 -156 47 -65 39 -84 56 -113 104 -40 66 -67 88
-106 88 -23 0 -376 130 -510 188 -87 38 -148 120 -148 200 0 33 -29 85 -98
176 -34 44 -71 107 -83 140 -38 101 -34 33 6 -93 39 -126 38 -121 26 -121 -5
0 -32 36 -61 79 -37 58 -50 85 -45 100 9 30 -19 119 -75 241 -85 184 -86 262
-10 452 23 56 45 124 51 151 11 58 27 83 43 67 18 -18 27 -11 14 13 -9 15 -13
72 -14 173 -2 192 -5 198 -85 191 -42 -4 -86 -18 -149 -49 -50 -24 -90 -39
-90 -34 0 22 96 98 260 207 96 63 190 121 209 127 59 21 126 14 224 -22 132
-48 157 -56 183 -56 29 0 30 7 3 36 -26 28 -19 41 25 50 60 11 137 -12 192
-58 68 -57 107 -71 186 -70 74 1 87 -6 58 -33 -11 -10 -20 -30 -20 -44 0 -22
-12 -33 -75 -69 -42 -24 -80 -52 -85 -62 -11 -21 11 -43 85 -85 28 -16 84 -51
124 -77 42 -28 84 -48 95 -46 37 5 48 46 34 134 -19 129 -19 129 25 132 27 2
56 -6 100 -27 53 -26 71 -30 112 -25 45 5 56 2 113 -33 70 -43 231 -164 232
-175 0 -3 -17 -16 -37 -29 -57 -34 -103 -80 -103 -104 0 -16 14 -29 51 -49 60
-33 60 -48 1 -90 -38 -27 -46 -29 -73 -19 -27 11 -33 9 -65 -19 -29 -25 -35
-37 -32 -60 4 -25 0 -31 -36 -47 -78 -35 -109 -96 -106 -204 1 -34 2 -68 1
-76 0 -7 -32 -45 -70 -85 -94 -96 -97 -106 -64 -210 25 -80 26 -116 4 -116 -6
0 -43 29 -83 65 -51 47 -86 70 -122 80 -162 48 -382 -29 -447 -156 -38 -76
-16 -202 48 -265 27 -27 41 -34 74 -34 45 0 74 13 170 77 100 67 137 41 104
-73 -17 -60 -14 -74 17 -74 36 0 99 -44 124 -86 14 -23 28 -66 31 -95 9 -74
27 -113 66 -143 67 -51 235 -73 300 -40 18 9 73 45 122 79 119 82 138 89 234
83 72 -4 89 -10 212 -71 74 -36 175 -77 224 -92 194 -57 196 -59 224 -172 20
-86 30 -91 198 -103 259 -19 313 -64 267 -220 -58 -196 -292 -565 -410 -646
-31 -21 -81 -72 -117 -118 -34 -44 -84 -105 -112 -135 -54 -59 -276 -228 -394
-301 -118 -73 -170 -118 -211 -183 -21 -34 -48 -77 -60 -96 -11 -18 -19 -35
-17 -37 6 -6 184 45 284 81 677 249 1217 811 1437 1494 40 123 83 312 92 400
4 33 11 61 15 61 5 0 9 119 9 265 0 146 -4 265 -8 265 -4 0 -13 42 -20 93 -6
51 -27 153 -45 227 -204 804 -815 1446 -1603 1685 -126 38 -342 85 -393 85
-17 0 -31 5 -31 10 0 6 -97 10 -270 10 -148 0 -270 -4 -270 -9z m605 -96 c85
-19 167 -42 183 -52 68 -42 112 -99 112 -146 0 -12 18 -60 40 -106 22 -45 40
-86 40 -91 0 -5 -10 -14 -21 -21 -19 -9 -34 -5 -103 30 -45 23 -121 72 -171
111 -152 117 -241 160 -334 160 -36 0 -71 23 -71 47 0 23 32 65 65 84 42 26
83 24 260 -16z m-337 -23 c8 -57 -72 -111 -165 -112 -58 0 -68 13 -33 45 11
10 20 27 20 37 0 27 73 59 130 56 38 -3 45 -6 48 -26z m-41 -182 c68 -7 95
-17 170 -57 110 -59 134 -82 127 -120 -8 -43 -30 -55 -94 -48 -129 14 -150 26
-115 65 42 47 -9 89 -125 105 -81 11 -135 43 -97 58 19 8 45 8 134 -3z m213
-1762 c19 -5 85 -35 147 -66 l111 -56 57 14 c60 14 110 6 110 -19 0 -7 -25
-21 -55 -32 -81 -30 -136 -21 -261 40 -100 49 -198 81 -246 81 -48 0 -35 46
15 53 32 4 74 -1 122 -15z"></path>
    </g>
  </symbol>
  <symbol version="1.0" xmlns="http://www.w3.org/2000/svg" preserveAspectRatio="xMidYMid meet" viewBox="0 0 474.000000 426.000000" id="icon-sac">
    <metadata>Created by potrace 1.16, written by Peter Selinger 2001-2019</metadata>
    <g transform="translate(0.000000,426.000000) scale(0.100000,-0.100000)" fill="currentColor" stroke="none">
      <path d="M2150 4250 c0 -5 -12 -10 -27 -10 -78 0 -305 -70 -490 -152 l-93 -41
0 -248 0 -249 -295 0 -295 0 0 -1775 0 -1775 1420 0 1420 0 0 1775 0 1775
-295 0 -295 0 0 249 0 248 -97 43 c-133 59 -271 104 -395 130 -57 12 -111 26
-120 31 -25 13 -438 12 -438 -1z m325 -280 c94 -10 233 -46 317 -82 l48 -20 0
-159 0 -159 -470 0 -470 0 0 159 0 159 48 20 c77 33 163 59 237 71 138 22 172
24 290 11z"></path>
      <path d="M357 3535 c-131 -36 -251 -133 -306 -248 -17 -36 -31 -72 -31 -81 0
-9 -4 -16 -10 -16 -7 0 -10 -478 -10 -1415 0 -802 4 -1415 9 -1415 5 0 11 -14
15 -31 18 -93 136 -229 239 -278 36 -17 72 -31 81 -31 9 0 16 -4 16 -10 0 -6
65 -10 175 -10 l175 0 0 1775 0 1775 -152 -1 c-93 0 -172 -6 -201 -14z"></path>
      <path d="M4030 1775 l0 -1775 175 0 c110 0 175 4 175 10 0 6 7 10 16 10 38 0
146 64 201 118 55 55 123 168 123 206 0 9 5 16 10 16 7 0 10 478 10 1415 0
937 -3 1415 -10 1415 -5 0 -10 7 -10 16 0 37 -68 151 -120 204 -107 106 -208
140 -422 140 l-148 0 0 -1775z"></path>
    </g>
  </symbol>
  <symbol version="1.0" xmlns="http://www.w3.org/2000/svg" preserveAspectRatio="xMidYMid meet" viewBox="0 0 474.000000 381.000000" id="icon-sac-dev">
    <metadata>Created by potrace 1.16, written by Peter Selinger 2001-2019</metadata>
    <g transform="translate(0.000000,381.000000) scale(0.100000,-0.100000)" fill="currentColor" stroke="none">
      <path d="M1740 3800 c0 -5 -7 -10 -15 -10 -62 0 -189 -112 -231 -203 -28 -60
-29 -67 -32 -254 l-4 -193 -449 0 c-372 0 -463 -3 -527 -16 -174 -36 -332
-157 -411 -314 -22 -44 -43 -96 -47 -115 -3 -19 -10 -35 -15 -35 -5 0 -9 -123
-9 -280 0 -154 4 -280 9 -280 4 0 489 -97 1077 -215 588 -118 1072 -215 1076
-215 3 0 8 49 10 109 3 106 4 111 32 140 35 37 68 47 158 50 87 3 137 -12 173
-49 29 -30 30 -35 33 -141 2 -60 7 -109 11 -109 4 0 488 97 1076 215 588 118
1073 215 1077 215 4 0 8 126 8 280 0 157 -4 280 -9 280 -5 0 -12 16 -15 36 -9
48 -75 172 -120 227 -48 59 -131 121 -210 158 -118 55 -158 59 -653 59 l-451
0 -4 193 c-3 187 -4 194 -32 254 -42 91 -169 203 -231 203 -8 0 -15 5 -15 10
0 7 -217 10 -630 10 -413 0 -630 -3 -630 -10z m1247 -217 c19 -9 47 -34 61
-56 26 -39 27 -48 30 -189 2 -82 1 -160 -2 -174 l-6 -24 -703 2 -702 3 -3 148
c-3 155 5 208 38 249 46 59 32 58 668 58 523 0 588 -2 619 -17z"></path>
      <path d="M72 1193 l3 -768 26 -66 c63 -161 221 -308 362 -334 20 -4 37 -11 37
-16 0 -5 786 -9 1870 -9 1084 0 1870 4 1870 9 0 5 15 12 33 15 128 25 271 143
341 282 57 113 56 105 56 911 0 409 -1 743 -3 743 -6 0 -2044 -409 -2070 -415
-26 -7 -27 -9 -27 -84 0 -137 -40 -171 -200 -171 -161 0 -200 34 -200 172 0
72 -2 78 -22 83 -27 6 -2070 415 -2075 415 -2 0 -2 -345 -1 -767z"></path>
    </g>
  </symbol>
  <symbol version="1.0" xmlns="http://www.w3.org/2000/svg" preserveAspectRatio="xMidYMid meet" viewBox="0 0 474.000000 478.000000" id="icon-asteric">
    <metadata>Created by potrace 1.16, written by Peter Selinger 2001-2019</metadata>
    <g transform="translate(0.000000,478.000000) scale(0.100000,-0.100000)" fill="currentColor" stroke="none">
      <path d="M2040 4772 c0 -4 -21 -15 -47 -24 -97 -35 -202 -141 -244 -248 -10
-28 -15 -145 -19 -551 l-5 -517 -360 195 c-544 294 -576 310 -655 323 -136 23
-306 -32 -387 -124 -42 -48 -250 -378 -286 -453 -12 -27 -25 -49 -29 -51 -12
-5 -10 -202 2 -202 6 0 10 -7 10 -15 0 -9 12 -39 26 -67 51 -100 88 -125 582
-393 254 -137 458 -253 454 -256 -8 -8 -189 -107 -622 -341 -261 -140 -302
-165 -352 -218 -37 -39 -63 -77 -75 -110 -10 -27 -21 -50 -25 -50 -5 0 -8 -48
-8 -106 0 -58 4 -103 8 -100 5 3 13 -9 19 -27 16 -52 261 -443 306 -488 101
-101 285 -145 428 -103 30 9 257 126 506 260 248 134 454 244 457 244 3 0 6
-231 8 -512 3 -512 3 -513 26 -571 32 -79 124 -177 204 -217 34 -16 69 -30 80
-30 10 0 18 -4 18 -10 0 -6 110 -10 310 -10 200 0 310 4 310 10 0 6 8 10 18
10 63 0 209 111 260 198 49 85 52 120 52 645 0 268 3 487 6 487 3 0 117 -60
252 -134 725 -393 712 -386 831 -386 119 0 234 45 308 120 43 43 285 424 304
479 6 17 15 31 20 31 5 0 9 47 9 105 0 58 -3 105 -8 105 -4 0 -16 23 -26 52
-13 37 -36 69 -80 113 -52 52 -103 83 -366 224 -168 91 -374 203 -458 249
l-154 84 29 17 c15 10 159 88 318 173 649 350 641 345 696 455 19 37 37 70 42
71 4 2 7 50 7 107 0 57 -3 105 -7 107 -5 2 -18 24 -30 51 -36 75 -244 405
-286 453 -72 82 -247 144 -359 128 -81 -11 -141 -37 -337 -142 -108 -58 -311
-167 -451 -243 l-255 -137 -5 517 -5 516 -27 57 c-15 32 -39 74 -55 95 -37 48
-135 120 -184 134 -21 7 -39 16 -39 21 0 4 -148 8 -330 8 -181 0 -330 -3 -330
-8z"></path>
    </g>
  </symbol>
</svg>