<svg width="0" height="0" class="hidden">
  <symbol version="1.0" xmlns="http://www.w3.org/2000/svg" preserveAspectRatio="xMidYMid meet" viewBox="0 0 512.000000 512.000000" id="facebook">
    <metadata>Created by potrace 1.16, written by Peter Selinger 2001-2019</metadata>
    <g transform="translate(0.000000,512.000000) scale(0.100000,-0.100000)" fill="currentColor" stroke="none">
      <path d="M2310 5113 c-485 -49 -947 -234 -1330 -531 -117 -91 -316 -287 -413
-407 -279 -346 -461 -750 -539 -1199 -29 -172 -37 -551 -14 -726 43 -322 122
-581 263 -858 118 -233 256 -424 448 -621 414 -425 923 -678 1525 -757 174
-22 553 -15 726 15 262 45 485 117 719 232 248 122 448 263 654 464 397 387
647 864 742 1419 30 174 37 541 15 726 -92 751 -507 1419 -1141 1836 -329 216
-695 350 -1085 399 -113 14 -466 19 -570 8z m859 -1297 c20 -18 21 -29 21
-191 0 -132 -3 -176 -14 -191 -13 -17 -31 -20 -168 -24 -183 -7 -222 -22 -260
-99 -21 -42 -23 -63 -26 -243 l-4 -198 223 0 c193 0 225 -2 241 -17 23 -21 23
-48 -2 -248 -11 -88 -20 -163 -20 -167 0 -5 -9 -17 -20 -28 -19 -19 -33 -20
-220 -20 l-200 0 0 -537 c0 -322 -4 -544 -10 -553 -13 -21 -408 -22 -433 -1
-15 12 -17 63 -17 552 l0 539 -148 0 c-208 0 -192 -19 -192 237 0 178 2 209
17 225 14 16 34 18 170 18 l153 0 0 204 c0 242 15 348 64 451 66 139 158 223
300 273 89 31 180 40 372 38 134 -1 154 -3 173 -20z"></path>
    </g>
  </symbol>
  <symbol version="1.0" xmlns="http://www.w3.org/2000/svg" preserveAspectRatio="xMidYMid meet" viewBox="0 0 512.000000 512.000000" id="github">
    <metadata>Created by potrace 1.16, written by Peter Selinger 2001-2019</metadata>
    <g transform="translate(0.000000,512.000000) scale(0.100000,-0.100000)" fill="currentColor" stroke="none">
      <path d="M2345 5054 c-16 -2 -70 -9 -120 -15 -438 -53 -884 -241 -1255 -528
-126 -97 -354 -330 -453 -462 -284 -380 -441 -767 -503 -1239 -23 -177 -15
-566 15 -733 48 -267 116 -479 230 -712 128 -260 283 -477 486 -680 250 -251
555 -450 889 -580 124 -49 176 -55 231 -29 61 28 65 51 65 338 0 141 -4 256
-8 256 -5 0 -55 -7 -113 -16 -262 -40 -491 18 -634 160 -51 51 -73 86 -127
197 -92 187 -149 257 -291 356 -25 17 -54 44 -63 59 -18 26 -17 27 7 46 20 17
35 20 101 16 143 -8 274 -98 382 -262 105 -160 224 -245 374 -268 88 -14 207
-1 308 34 l67 23 18 77 c22 93 57 166 111 231 21 26 36 47 31 47 -4 0 -62 9
-128 20 -327 53 -554 156 -725 329 -174 175 -271 415 -301 741 -27 298 27 536
171 744 28 40 59 81 69 90 18 16 18 19 0 77 -31 100 -42 225 -29 336 12 99 53
260 71 278 17 17 130 7 224 -20 107 -31 256 -102 380 -180 l90 -57 115 25
c204 45 273 52 530 52 257 0 326 -7 530 -52 l115 -25 90 57 c124 78 273 149
380 180 94 27 207 37 224 20 18 -19 60 -182 70 -279 13 -110 2 -239 -27 -333
l-18 -58 53 -65 c29 -36 75 -110 103 -165 92 -183 123 -375 101 -620 -41 -447
-202 -731 -517 -910 -128 -73 -334 -139 -519 -165 -140 -20 -132 -14 -90 -63
20 -23 52 -73 70 -112 60 -125 65 -175 65 -641 0 -456 1 -462 59 -497 62 -36
156 -14 381 88 538 247 969 667 1231 1200 114 233 182 445 230 712 30 167 38
556 15 733 -78 592 -320 1087 -735 1500 -220 219 -410 355 -686 490 -238 117
-472 190 -752 236 -93 15 -516 28 -588 18z"></path>
    </g>
  </symbol>
  <symbol version="1.0" xmlns="http://www.w3.org/2000/svg" preserveAspectRatio="xMidYMid meet" viewBox="0 0 512.000000 512.000000" id="instagram">
    <metadata>Created by potrace 1.16, written by Peter Selinger 2001-2019</metadata>
    <g transform="translate(0.000000,512.000000) scale(0.100000,-0.100000)" fill="currentColor" stroke="none">
      <path d="M2235 5105 c-462 -60 -885 -237 -1255 -523 -117 -91 -316 -287 -413
-407 -276 -342 -459 -746 -537 -1186 -28 -156 -39 -531 -21 -702 82 -766 505
-1455 1156 -1880 324 -211 689 -344 1085 -393 152 -19 472 -18 630 1 1160 144
2081 1065 2225 2225 20 162 20 478 0 640 -92 744 -509 1411 -1140 1826 -329
216 -695 350 -1085 399 -152 18 -501 18 -645 0z m991 -1095 c148 -13 249 -40
364 -97 80 -39 109 -61 186 -137 76 -77 98 -106 137 -186 102 -206 110 -291
104 -1110 -3 -595 -5 -641 -24 -726 -73 -320 -276 -537 -576 -613 -138 -36
-270 -42 -857 -42 -737 0 -831 10 -1030 108 -80 39 -109 61 -186 137 -76 77
-98 106 -137 186 -98 199 -107 286 -107 1030 0 744 9 831 107 1030 39 80 60
109 137 185 125 124 237 182 429 221 139 28 1174 38 1453 14z"></path>
      <path d="M1945 3760 c-199 -14 -326 -62 -426 -162 -100 -101 -143 -219 -159
-436 -12 -165 -12 -1039 0 -1204 16 -216 60 -336 161 -437 106 -107 219 -145
469 -162 213 -14 1197 -6 1289 10 275 50 422 197 472 472 16 92 24 1076 10
1289 -17 253 -54 362 -162 469 -103 103 -220 146 -443 161 -154 11 -1052 10
-1211 0z m1476 -266 c64 -33 107 -121 89 -183 -39 -138 -186 -181 -283 -84
-135 135 24 354 194 267z m-656 -214 c131 -41 221 -96 320 -195 100 -100 154
-189 196 -325 34 -108 34 -292 0 -400 -42 -136 -96 -225 -196 -325 -100 -100
-189 -154 -325 -196 -108 -34 -292 -34 -400 0 -136 42 -225 96 -325 196 -100
100 -154 189 -196 325 -34 108 -34 292 0 400 76 247 261 437 499 515 86 28
141 34 252 30 70 -2 128 -11 175 -25z"></path>
      <path d="M2403 3030 c-131 -43 -252 -157 -304 -287 -20 -50 -24 -75 -24 -183
0 -107 4 -133 23 -182 49 -121 159 -231 280 -280 49 -19 75 -23 182 -23 107 0
133 4 182 23 121 49 231 159 280 280 19 49 23 75 23 182 0 107 -4 133 -23 182
-49 121 -160 232 -280 279 -83 33 -252 37 -339 9z"></path>
    </g>
  </symbol>
  <symbol version="1.0" xmlns="http://www.w3.org/2000/svg" preserveAspectRatio="xMidYMid meet" viewBox="0 0 512.000000 512.000000" id="linkedin">
    <metadata>Created by potrace 1.16, written by Peter Selinger 2001-2019</metadata>
    <g transform="translate(0.000000,512.000000) scale(0.100000,-0.100000)" fill="currentColor" stroke="none">
      <path d="M2310 5113 c-485 -49 -947 -234 -1330 -531 -117 -91 -316 -287 -413
-407 -279 -346 -461 -750 -539 -1199 -29 -172 -37 -551 -14 -726 43 -322 122
-581 263 -858 118 -233 256 -424 448 -621 414 -425 923 -678 1525 -757 174
-22 553 -15 726 15 262 45 485 117 719 232 248 122 448 263 654 464 397 387
647 864 742 1419 30 174 37 541 15 726 -92 751 -507 1419 -1141 1836 -329 216
-695 350 -1085 399 -113 14 -466 19 -570 8z m-642 -1242 c69 -35 126 -95 157
-162 23 -53 27 -71 23 -138 -4 -90 -31 -154 -91 -214 -148 -148 -401 -111
-501 72 -97 179 -6 396 194 462 47 16 172 4 218 -20z m1829 -855 c229 -74 347
-240 388 -546 11 -80 15 -241 15 -677 l0 -573 -275 0 -274 0 -3 558 -3 557
-24 58 c-28 71 -70 121 -125 150 -34 18 -58 22 -141 22 -90 0 -106 -3 -157
-28 -89 -44 -138 -114 -164 -236 -11 -52 -14 -176 -14 -573 l0 -508 -275 0
-275 0 0 895 0 895 265 0 265 0 0 -125 c0 -69 3 -125 8 -125 4 0 16 16 27 36
27 51 130 144 202 182 107 57 188 73 343 68 111 -3 150 -9 217 -30z m-1687
-901 l0 -895 -275 0 -275 0 0 895 0 895 275 0 275 0 0 -895z"></path>
    </g>
  </symbol>
  <symbol version="1.0" xmlns="http://www.w3.org/2000/svg" preserveAspectRatio="xMidYMid meet" viewBox="0 0 512.000000 512.000000" id="email">
    <metadata>Created by potrace 1.16, written by Peter Selinger 2001-2019</metadata>
    <g transform="translate(0.000000,512.000000) scale(0.100000,-0.100000)" fill="currentColor" stroke="none">
      <path d="M2265 5109 c-487 -60 -917 -239 -1310 -547 -104 -82 -350 -334 -431
-442 -289 -385 -454 -791 -510 -1250 -20 -168 -15 -550 10 -705 83 -517 320
-995 679 -1371 394 -412 874 -667 1441 -766 174 -30 543 -37 727 -13 1188 149
2110 1084 2239 2272 16 145 8 533 -14 667 -184 1134 -1088 2011 -2216 2151
-135 16 -493 19 -615 4z m1757 -1422 c67 -33 121 -90 154 -162 l24 -53 -2
-923 -3 -924 -23 -43 c-35 -66 -88 -119 -150 -149 l-57 -28 -1405 0 -1405 0
-46 21 c-67 31 -124 87 -159 156 l-30 61 0 916 0 916 24 51 c43 93 114 156
206 180 35 10 357 12 1430 11 l1385 -2 57 -28z"></path>
      <path d="M1440 3446 c59 -56 1117 -885 1126 -882 11 4 1087 856 1114 882 12
12 -143 14 -1120 14 -974 0 -1132 -2 -1120 -14z"></path>
      <path d="M1170 2512 c0 -781 1 -820 18 -835 17 -16 127 -17 1374 -17 1300 0
1356 1 1371 18 16 17 17 89 17 835 0 449 -2 817 -5 817 -3 0 -298 -233 -657
-518 -359 -285 -663 -524 -675 -530 -28 -15 -78 -15 -106 0 -12 6 -316 245
-675 530 -359 285 -654 518 -657 518 -3 0 -5 -368 -5 -818z"></path>
    </g>
  </symbol>
</svg>