<svg width="0" height="0" class="hidden">
  <symbol version="1.0" xmlns="http://www.w3.org/2000/svg" preserveAspectRatio="xMidYMid meet" viewBox="0 0 474.000000 474.000000" id="facebook">
    <metadata>Created by potrace 1.16, written by Peter Selinger 2001-2019</metadata>
    <g transform="translate(0.000000,474.000000) scale(0.100000,-0.100000)" fill="currentColor" stroke="none">
      <path d="M17 4118 c-16 -130 -17 -319 -17 -2130 l0 -1988 1260 0 1260 0 0 915
0 915 -310 0 -310 0 0 363 0 362 307 0 308 0 6 365 c6 367 8 383 50 519 19 62
77 191 90 201 4 3 15 20 26 38 28 45 105 125 158 163 25 18 45 36 45 41 0 5 6
6 13 2 7 -5 6 -1 -3 10 -22 28 -20 41 9 42 14 1 20 -1 13 -3 -10 -4 -10 -8 0
-21 12 -15 11 -16 -5 -3 -9 8 -20 11 -23 8 -3 -3 3 -10 15 -16 17 -9 22 -8 31
9 6 11 15 18 20 15 13 -8 41 6 33 18 -3 6 -1 7 5 3 6 -4 28 0 48 9 21 9 74 26
118 38 76 21 100 22 376 21 162 -1 331 -6 375 -10 l80 -9 0 -321 0 -322 -250
-5 c-277 -5 -322 -13 -388 -68 -83 -69 -99 -147 -95 -484 l3 -240 354 -3 354
-2 -7 -43 c-4 -23 -25 -175 -47 -337 -22 -162 -41 -304 -43 -315 -3 -19 -12
-20 -307 -22 l-304 -3 -3 -915 -2 -915 740 0 740 0 0 2010 c0 1333 -3 2010
-10 2010 -6 0 -10 47 -10 120 l0 120 -2319 0 -2320 0 -4 -42 -4 -43 -1 43 c-2
33 -6 42 -20 42 -16 0 -20 -18 -35 -142z"></path>
    </g>
  </symbol>
</svg>