<svg width="0" height="0" class="hidden">
  <symbol version="1.0" xmlns="http://www.w3.org/2000/svg" preserveAspectRatio="xMidYMid meet" viewBox="0 0 474.000000 474.000000" id="github">
    <metadata>Created by potrace 1.16, written by Peter Selinger 2001-2019</metadata>
    <g transform="translate(0.000000,474.000000) scale(0.100000,-0.100000)" fill="currentColor" stroke="none">
      <path d="M0 2370 l0 -2370 2370 0 2370 0 0 2370 0 2370 -2370 0 -2370 0 0
-2370z m2682 1851 c312 -54 566 -160 828 -345 103 -73 337 -303 412 -406 227
-311 352 -654 378 -1031 30 -448 -91 -867 -360 -1252 -84 -120 -317 -353 -437
-437 -125 -88 -256 -161 -386 -216 -124 -52 -165 -61 -205 -45 -57 24 -57 26
-57 391 -1 380 -7 419 -80 526 -21 30 -36 56 -34 58 2 1 42 8 88 15 267 40
493 157 606 315 95 133 147 288 167 500 21 230 -27 426 -145 581 l-45 60 15
55 c22 77 22 256 0 340 -31 117 -33 120 -86 120 -97 0 -278 -70 -427 -165
l-57 -36 -66 15 c-132 32 -258 46 -406 46 -167 0 -278 -11 -406 -41 l-86 -20
-69 42 c-171 104 -292 151 -399 153 l-70 1 -24 -80 c-30 -101 -35 -299 -8
-379 l16 -49 -46 -61 c-55 -73 -104 -175 -129 -271 -14 -54 -18 -103 -18 -215
3 -332 103 -578 294 -725 117 -90 290 -159 465 -185 114 -17 110 -13 70 -71
-31 -45 -75 -159 -75 -194 0 -8 -28 -22 -62 -34 -212 -69 -374 -11 -496 178
-79 123 -179 191 -292 198 -47 4 -70 1 -84 -10 -19 -14 -19 -16 -3 -41 9 -14
41 -43 70 -64 99 -74 142 -130 209 -273 19 -41 49 -91 67 -111 99 -113 284
-166 485 -139 49 7 90 11 91 9 2 -2 5 -90 7 -196 l3 -194 -33 -29 c-43 -38
-74 -37 -186 7 -252 101 -460 236 -650 422 -555 545 -731 1351 -453 2070 176
453 528 835 963 1043 203 98 446 167 654 188 139 13 357 5 492 -18z"></path>
    </g>
  </symbol>
</svg>