<svg width="0" height="0" class="hidden">
  <symbol version="1.0" xmlns="http://www.w3.org/2000/svg" preserveAspectRatio="xMidYMid meet" viewBox="0 0 474.000000 444.000000" id="home">
    <metadata>Created by potrace 1.16, written by Peter Selinger 2001-2019</metadata>
    <g transform="translate(0.000000,444.000000) scale(0.100000,-0.100000)" fill="currentColor" stroke="none">
      <path d="M1646 4424 c-14 -36 23 -60 235 -153 118 -52 227 -103 243 -114 41
-29 56 -74 56 -172 0 -82 1 -88 29 -116 27 -27 35 -29 106 -29 86 0 131 -17
145 -56 15 -38 13 -797 -2 -828 -6 -14 -22 -33 -34 -41 -37 -24 -1056 -188
-1119 -180 -38 4 -113 37 -285 125 -295 149 -294 147 -298 298 -2 59 -8 111
-12 116 -15 16 -43 -13 -241 -249 -374 -446 -453 -540 -461 -543 -4 -2 -8 -20
-8 -39 0 -26 8 -43 28 -62 15 -14 205 -177 421 -361 217 -184 494 -420 615
-524 122 -103 234 -194 250 -201 21 -9 38 -10 57 -3 21 7 228 270 806 1021
428 557 792 1027 809 1045 23 22 41 32 63 32 35 0 16 16 536 -459 165 -151
394 -360 509 -465 115 -105 257 -235 315 -289 106 -97 149 -120 184 -100 9 4
45 36 81 71 59 57 66 68 66 102 0 42 17 23 -260 286 -64 60 -248 235 -410 390
-874 832 -958 910 -1016 941 -33 17 -336 149 -674 293 -338 144 -616 266 -618
271 -2 5 -28 9 -57 9 -40 0 -54 -4 -59 -16z"></path>
      <path d="M1185 4256 c-143 -29 -270 -58 -282 -65 -54 -28 -54 -31 -51 -564 l3
-492 23 -32 c16 -23 73 -58 209 -129 246 -128 206 -126 733 -39 493 81 480 78
508 110 22 26 22 29 22 325 l0 299 -24 28 c-22 25 -30 28 -121 33 -128 7 -135
14 -135 147 0 111 -13 162 -49 197 -53 50 -514 241 -570 235 -3 0 -123 -24
-266 -53z"></path>
      <path d="M3015 3180 c-27 -11 -39 -25 -222 -256 -257 -327 -699 -886 -832
-1054 -67 -85 -134 -177 -147 -205 l-24 -50 0 -790 c1 -641 3 -793 14 -808 14
-18 91 -25 98 -9 2 5 136 51 298 102 162 52 307 102 322 112 26 18 62 91 58
119 -1 8 -2 350 -1 761 l1 748 28 30 c26 30 38 33 400 105 407 81 411 81 432
22 6 -20 10 -268 10 -733 0 -691 0 -704 20 -724 11 -11 26 -20 33 -20 7 0 80
16 163 34 360 84 357 83 386 115 15 17 30 41 32 53 3 13 14 230 26 483 11 253
25 567 31 698 l11 239 -28 53 c-24 45 -111 128 -523 502 -272 246 -501 453
-510 459 -25 18 -54 23 -76 14z"></path>
      <path d="M697 1603 c-4 -3 -7 -141 -7 -307 0 -281 1 -302 20 -342 15 -30 144
-159 462 -460 242 -231 449 -425 460 -432 49 -35 48 -53 48 693 0 670 -1 695
-19 695 -11 0 -60 -51 -131 -137 -141 -172 -152 -183 -195 -183 -38 0 -23 -12
-374 288 -207 177 -246 204 -264 185z"></path>
    </g>
  </symbol>
</svg>