<svg width="0" height="0" class="hidden">
  <symbol version="1.0" xmlns="http://www.w3.org/2000/svg" preserveAspectRatio="xMidYMid meet" viewBox="0 0 474.000000 474.000000" id="email">
    <metadata>Created by potrace 1.16, written by Peter Selinger 2001-2019</metadata>
    <g transform="translate(0.000000,474.000000) scale(0.100000,-0.100000)" fill="currentColor" stroke="none">
      <path d="M2385 4725 c-6 -8 -152 -118 -325 -245 l-314 -230 -508 0 -508 0 0
-369 0 -368 -320 -234 c-177 -129 -340 -248 -363 -264 l-43 -31 104 -79 c57
-44 136 -105 176 -136 201 -156 1813 -1370 1985 -1494 52 -37 55 -38 81 -23
33 19 401 285 1508 1090 475 345 868 628 873 628 5 0 9 3 9 8 0 4 -159 127
-353 273 l-352 266 -3 366 -2 367 -482 0 -482 0 -316 238 c-173 130 -316 240
-318 245 -6 12 -37 8 -47 -8z m1495 -1258 c0 -343 -3 -691 -7 -773 l-6 -149
-331 -240 c-182 -132 -520 -377 -752 -546 -231 -169 -430 -312 -441 -319 -21
-14 -46 5 -1233 905 l-225 170 -3 788 -2 787 1500 0 1500 0 0 -623z"></path>
      <path d="M2193 3875 c-376 -97 -646 -358 -759 -731 -25 -81 -27 -104 -28 -259
0 -204 9 -255 73 -390 105 -221 263 -360 511 -448 82 -30 92 -31 297 -35 235
-4 312 4 437 46 94 31 98 39 68 137 -22 70 -14 69 -157 30 -143 -38 -323 -45
-458 -17 -264 55 -449 225 -514 472 -12 48 -17 107 -17 220 0 186 12 241 85
389 44 89 64 118 138 191 101 102 187 156 321 201 90 31 103 32 245 33 163 1
220 -9 322 -54 160 -72 270 -191 323 -350 20 -59 22 -80 18 -230 -5 -183 -14
-219 -73 -305 -44 -64 -93 -97 -153 -102 -77 -7 -87 7 -86 119 1 51 18 203 38
337 29 197 34 247 24 257 -51 50 -354 80 -498 50 -228 -48 -418 -227 -477
-447 -25 -97 -22 -248 7 -323 26 -68 93 -145 146 -171 58 -27 151 -38 224 -25
81 14 153 54 222 125 29 30 56 55 60 55 3 0 9 -13 13 -29 11 -51 62 -111 113
-133 69 -31 223 -29 307 2 273 104 417 399 366 751 -36 249 -207 472 -445 579
-142 65 -185 73 -401 76 -185 3 -207 2 -292 -21z m318 -673 c14 -6 14 -18 -2
-132 -22 -155 -33 -192 -72 -253 -69 -110 -175 -131 -234 -47 -18 26 -20 147
-3 211 16 59 64 132 111 170 60 47 153 71 200 51z"></path>
      <path d="M0 1365 c0 -821 4 -1365 9 -1365 5 0 11 3 13 8 1 4 61 52 133 108
322 248 1386 1080 1558 1217 20 17 37 34 37 37 0 8 -471 378 -1170 921 -544
423 -566 439 -573 439 -4 0 -7 -614 -7 -1365z"></path>
      <path d="M4693 2707 c-15 -13 -311 -237 -658 -497 -346 -261 -664 -500 -705
-532 -41 -32 -146 -112 -232 -178 -86 -66 -159 -124 -162 -128 -3 -5 34 -38
82 -74 48 -36 157 -119 242 -183 85 -65 445 -336 800 -603 355 -267 650 -491
656 -498 6 -8 14 -14 18 -14 3 0 6 614 6 1365 0 828 -4 1365 -9 1365 -5 0 -22
-10 -38 -23z"></path>
      <path d="M1755 1123 c-1106 -858 -1420 -1104 -1423 -1114 -2 -5 765 -9 2047
-9 1128 0 2051 3 2051 8 0 7 -616 463 -1334 989 -182 134 -337 241 -344 238
-8 -3 -89 -54 -180 -113 -92 -60 -185 -119 -207 -132 l-40 -23 -202 137 c-112
75 -206 136 -210 136 -5 -1 -75 -53 -158 -117z"></path>
    </g>
  </symbol>
</svg>