<svg width="0" height="0" class="hidden">
  <symbol version="1.0" xmlns="http://www.w3.org/2000/svg" preserveAspectRatio="xMidYMid meet" viewBox="0 0 474.000000 452.000000" id="linkedin">
    <metadata>Created by potrace 1.16, written by Peter Selinger 2001-2019</metadata>
    <g transform="translate(0.000000,452.000000) scale(0.100000,-0.100000)" fill="currentColor" stroke="none">
      <path d="M420 4511 c0 -5 -15 -12 -34 -15 -63 -12 -173 -75 -233 -134 -59 -57
-133 -181 -133 -224 0 -11 -4 -16 -10 -13 -6 4 -10 -42 -10 -129 0 -75 4 -136
8 -136 4 0 14 -20 21 -45 43 -147 199 -287 366 -330 77 -20 260 -20 344 0 189
45 341 186 387 359 18 68 18 218 -1 289 -42 161 -175 304 -328 352 -29 9 -60
20 -69 26 -22 12 -308 12 -308 0z"></path>
      <path d="M3363 3105 c-148 -27 -291 -86 -411 -171 -82 -58 -204 -181 -257
-259 l-40 -57 -3 216 -2 216 -503 0 -502 0 -2 -1525 -3 -1525 505 0 504 0 4
923 c3 1006 1 956 62 1077 139 274 423 386 710 279 46 -17 76 -38 126 -88 72
-73 107 -136 142 -259 21 -76 22 -87 25 -1004 l3 -928 509 0 510 0 0 1010 c0
556 -4 1010 -8 1010 -4 0 -13 39 -20 88 -73 539 -428 923 -919 997 -119 18
-332 18 -430 0z"></path>
      <path d="M60 1525 l0 -1525 510 0 510 0 -2 1523 -3 1522 -507 3 -508 2 0
-1525z"></path>
    </g>
  </symbol>
  
  <symbol version="1.0" xmlns="http://www.w3.org/2000/svg" preserveAspectRatio="xMidYMid meet" viewBox="0 0 474.000000 483.000000" id="instagram">
    <metadata>Created by potrace 1.16, written by Peter Selinger 2001-2019</metadata>
    <g transform="translate(0.000000,483.000000) scale(0.100000,-0.100000)" fill="currentColor" stroke="none">
      <path d="M1040 4820 c0 -5 -12 -10 -27 -10 -45 0 -179 -37 -271 -75 -298 -121
-531 -358 -651 -662 -33 -84 -71 -230 -71 -275 0 -16 -4 -28 -10 -28 -7 0 -10
-458 -10 -1355 0 -745 4 -1355 8 -1355 4 0 13 -35 19 -78 23 -153 101 -340
200 -480 108 -153 295 -308 464 -386 91 -42 220 -83 288 -92 28 -4 51 -10 51
-15 0 -12 2665 -12 2688 0 9 5 60 18 112 30 310 70 575 267 747 554 64 105
143 325 143 394 0 13 5 23 10 23 7 0 10 475 10 1405 0 930 -3 1405 -10 1405
-5 0 -10 8 -10 18 0 10 -10 56 -21 103 -108 427 -492 788 -918 861 -39 7 -71
16 -71 20 0 4 -601 8 -1335 8 -883 0 -1335 -3 -1335 -10z m2572 -397 c192 -55
354 -149 475 -276 123 -129 195 -254 250 -432 l28 -90 0 -1205 c0 -1132 -1
-1209 -18 -1270 -59 -213 -146 -362 -293 -500 -121 -114 -273 -199 -434 -242
l-85 -23 -1170 0 -1170 0 -90 28 c-351 110 -608 371 -698 710 l-22 82 0 1210
c0 1156 1 1213 19 1280 76 281 268 521 516 645 103 51 150 68 255 90 86 18
142 19 1225 17 1133 -2 1135 -2 1212 -24z"></path>
      <path d="M3560 4029 c-117 -23 -229 -118 -270 -227 -32 -83 -25 -215 14 -291
35 -68 102 -133 174 -168 49 -24 69 -27 147 -28 77 0 98 4 147 27 253 118 293
455 74 617 -87 64 -189 90 -286 70z"></path>
      <path d="M2135 3600 c-534 -116 -911 -537 -965 -1079 -49 -488 220 -966 670
-1191 167 -84 327 -120 532 -120 225 0 413 48 594 152 118 67 182 118 282 222
220 230 332 510 332 834 0 327 -121 616 -354 848 -163 162 -339 264 -556 321
-134 36 -401 42 -535 13z m453 -301 c523 -132 809 -709 610 -1229 -65 -169
-218 -350 -373 -442 -163 -96 -366 -141 -544 -120 -433 51 -763 400 -797 842
-12 165 27 351 107 498 143 267 381 430 694 476 58 8 226 -5 303 -25z"></path>
    </g>
  </symbol>
</svg>